<?xml version="1.0" encoding="UTF-8"?>
<svg xmlns="http://www.w3.org/2000/svg" width="470" height="240" viewBox="0 0 4700 2400">
<g fill="#9a9a9a" stroke="none" opacity="0.85">
 <path d="M613 2165 c-40 -8 -81 -20 -91 -27 -10 -7 -100 -78 -200 -157 -200 -158 -192 -148 -173 -246 13 -69 173 -286 280 -379 l90 -80 -64 -71 c-49 -56 -81 -105 -138 -222 -95 -192 -99 -212 -57 -307 30 -71 35 -75 128 -141 53 -38 154 -95 224 -128 121 -57 129 -59 181 -53 54 7 55 8 93 69 49 82 250 371 266 385 15 12 2296 -131 2308 -145 4 -4 26 -64 49 -132 29 -88 55 -147 91 -202 l51 -77 62 -11 c34 -6 94 -15 132 -22 l70 -11 180 57 c99 31 188 64 197 73 18 18 128 257 128 278 0 6 -16 55 -36 107 -33 86 -47 108 -154 237 l-119 143 182 139 c100 76 187 147 193 156 6 9 20 47 29 84 l18 68 -27 73 -26 73 -113 84 c-87 65 -146 100 -265 154 l-153 70 -102 -51 c-89 -45 -123 -71 -262 -198 l-160 -145 -75 5 c-41 3 -550 33 -1130 65 l-1055 60 -215 220 c-173 177 -220 220 -240 219 -14 -1 -58 -7 -97 -14z"/>
 </g>
</svg>