<?xml version="1.0" encoding="UTF-8" standalone="no"?>
<!-- Created with Inkscape (http://www.inkscape.org/) -->

<svg
   xmlns:dc="http://purl.org/dc/elements/1.1/"
   xmlns:cc="http://creativecommons.org/ns#"
   xmlns:rdf="http://www.w3.org/1999/02/22-rdf-syntax-ns#"
   xmlns:svg="http://www.w3.org/2000/svg"
   xmlns="http://www.w3.org/2000/svg"
   xmlns:sodipodi="http://sodipodi.sourceforge.net/DTD/sodipodi-0.dtd"
   xmlns:inkscape="http://www.inkscape.org/namespaces/inkscape"
   width="600"
   height="600"
   id="svg2"
   version="1.1"
   inkscape:version="0.48.2 r9819"
   sodipodi:docname="leaves.png">
  <defs
     id="defs4" />
  <sodipodi:namedview
     id="base"
     pagecolor="#ffffff"
     bordercolor="#666666"
     borderopacity="1.0"
     inkscape:pageopacity="0.0"
     inkscape:pageshadow="2"
     inkscape:zoom="0.49167608"
     inkscape:cx="280.85776"
     inkscape:cy="334.55571"
     inkscape:document-units="px"
     inkscape:current-layer="g3797"
     showgrid="false"
     borderlayer="true"
     inkscape:window-width="1135"
     inkscape:window-height="852"
     inkscape:window-x="408"
     inkscape:window-y="45"
     inkscape:window-maximized="0" />
  <metadata
     id="metadata7">
    <rdf:RDF>
      <cc:Work
         rdf:about="">
        <dc:format>image/svg+xml</dc:format>
        <dc:type
           rdf:resource="http://purl.org/dc/dcmitype/StillImage" />
        <dc:title></dc:title>
      </cc:Work>
    </rdf:RDF>
  </metadata>
  <g
     inkscape:label="Layer 1"
     inkscape:groupmode="layer"
     id="layer1"
     transform="translate(0,-452.36218)">
    <g
       id="g3797"
       transform="matrix(0.99085672,-0.02034842,0.02025794,0.99528163,-336.21904,719.17567)">
      <g
         id="g3902"
         transform="translate(7.7690862,-18.24893)">
        <g
           style="fill:#0a5a0a;fill-opacity:1"
           id="g3061"
           transform="matrix(0.5839343,-0.80808886,0.81531634,0.58422998,269.48576,556.34871)">
          <g
             style="fill:#0a5a0a;fill-opacity:1"
             inkscape:transform-center-x="124.44977"
             id="g3063"
             transform="matrix(-0.1275066,0.37028234,0.47750524,0.07807367,320.25627,-62.507447)"
             inkscape:transform-center-y="-86.140747">
            <g
               style="fill:#0a5a0a;fill-opacity:1"
               id="g3065">
              <path
                 inkscape:transform-center-y="-221.6347"
                 inkscape:transform-center-x="158.08432"
                 sodipodi:nodetypes="cccccscscacacccsc"
                 style="fill:#0a5a0a;fill-opacity:1"
                 d="M -13.940253,570.03566 C 121.2594,581.92279 111.37552,496.55902 71.668298,432.37372 63.958956,409.11824 30.174127,382.7788 21.862719,383.47328 4.3104992,415.71168 -91.147641,498.57045 -126.195,512.21021 c -21.90508,-36.15501 9.3639,-125.76046 21.80285,-157.00434 35.296185,-67.29617 -82.04435,2.89927 -116.86637,17.33423 -70.34813,29.16179 -213.58351,-11.37764 -204.82408,-25.89312 39.15147,-52.23466 89.93693,-118.63544 165.47816,-124.38615 50.43214,-3.83923 138.29931,53.22836 160.614695,69.21603 -11.457305,-13.12343 -44.090055,-40.55845 -50.917765,-63.99399 -13.54877,-46.50506 -2.69754,-98.77718 24.84046,-134.561137 27.340835,35.556967 71.432985,70.152437 87.442065,110.041977 10.199125,25.41298 11.7996,54.64204 3.22977,76.74804 -0.21455,2.89172 -10.00364,10.83603 8.93672,16.39266 47.66067,18.96928 33.2681903,51.39968 49.95631,66.47423 29.362692,12.78566 160.306315,143.728 66.615913,199.30903 -47.950277,28.44609 -105.217204,8.27167 -104.053981,8.14799 z"
                 id="path3067"
                 inkscape:connector-curvature="0" />
            </g>
          </g>
          <g
             style="fill:#0a5a0a;fill-opacity:1"
             inkscape:transform-center-y="-128.84772"
             transform="matrix(-0.38093403,-0.09710292,-0.04004246,0.48007899,654.0694,-291.66167)"
             id="g3069"
             inkscape:transform-center-x="-80.513706">
            <g
               style="fill:#0a5a0a;fill-opacity:1"
               id="g3071">
              <path
                 inkscape:connector-curvature="0"
                 id="path3073"
                 d="M -13.940253,570.03566 C 121.2594,581.92279 111.37552,496.55902 71.668298,432.37372 63.958956,409.11824 30.174127,382.7788 21.862719,383.47328 4.3104992,415.71168 -91.147641,498.57045 -126.195,512.21021 c -21.90508,-36.15501 9.3639,-125.76046 21.80285,-157.00434 35.296185,-67.29617 -82.04435,2.89927 -116.86637,17.33423 -70.34813,29.16179 -213.58351,-11.37764 -204.82408,-25.89312 39.15147,-52.23466 89.93693,-118.63544 165.47816,-124.38615 50.43214,-3.83923 138.29931,53.22836 160.614695,69.21603 -11.457305,-13.12343 -44.090055,-40.55845 -50.917765,-63.99399 -13.54877,-46.50506 -2.69754,-98.77718 24.84046,-134.561137 27.340835,35.556967 71.432985,70.152437 87.442065,110.041977 10.199125,25.41298 11.7996,54.64204 3.22977,76.74804 -0.21455,2.89172 -10.00364,10.83603 8.93672,16.39266 47.66067,18.96928 33.2681903,51.39968 49.95631,66.47423 29.362692,12.78566 160.306315,143.728 66.615913,199.30903 -47.950277,28.44609 -105.217204,8.27167 -104.053981,8.14799 z"
                 style="fill:#0a5a0a;fill-opacity:1"
                 sodipodi:nodetypes="cccccscscacacccsc"
                 inkscape:transform-center-x="158.08432"
                 inkscape:transform-center-y="-221.6347" />
            </g>
          </g>
          <g
             style="fill:#0a5a0a;fill-opacity:1"
             inkscape:transform-center-x="-131.07424"
             id="g3075"
             transform="matrix(0.07871607,-0.38352014,-0.48360985,-0.01642029,909.45835,30.539726)"
             inkscape:transform-center-y="76.745379">
            <g
               style="fill:#0a5a0a;fill-opacity:1"
               id="g3077">
              <path
                 inkscape:transform-center-y="-221.6347"
                 inkscape:transform-center-x="158.08432"
                 sodipodi:nodetypes="cccccscscacacccsc"
                 style="fill:#0a5a0a;fill-opacity:1"
                 d="M -13.940253,570.03566 C 121.2594,581.92279 111.37552,496.55902 71.668298,432.37372 63.958956,409.11824 30.174127,382.7788 21.862719,383.47328 4.3104992,415.71168 -91.147641,498.57045 -126.195,512.21021 c -21.90508,-36.15501 9.3639,-125.76046 21.80285,-157.00434 35.296185,-67.29617 -82.04435,2.89927 -116.86637,17.33423 -70.34813,29.16179 -213.58351,-11.37764 -204.82408,-25.89312 39.15147,-52.23466 89.93693,-118.63544 165.47816,-124.38615 50.43214,-3.83923 138.29931,53.22836 160.614695,69.21603 -11.457305,-13.12343 -44.090055,-40.55845 -50.917765,-63.99399 -13.54877,-46.50506 -2.69754,-98.77718 24.84046,-134.561137 27.340835,35.556967 71.432985,70.152437 87.442065,110.041977 10.199125,25.41298 11.7996,54.64204 3.22977,76.74804 -0.21455,2.89172 -10.00364,10.83603 8.93672,16.39266 47.66067,18.96928 33.2681903,51.39968 49.95631,66.47423 29.362692,12.78566 160.306315,143.728 66.615913,199.30903 -47.950277,28.44609 -105.217204,8.27167 -104.053981,8.14799 z"
                 id="path3079"
                 inkscape:connector-curvature="0" />
            </g>
          </g>
          <g
             style="fill:#0a5a0a;fill-opacity:1"
             inkscape:transform-center-y="125.23888"
             transform="matrix(0.37360217,0.12212787,0.07204966,-0.47635534,550.02925,294.03519)"
             id="g3081"
             inkscape:transform-center-x="85.257892">
            <g
               style="fill:#0a5a0a;fill-opacity:1"
               id="g3083">
              <path
                 inkscape:connector-curvature="0"
                 id="path3085"
                 d="M -13.940253,570.03566 C 121.2594,581.92279 111.37552,496.55902 71.668298,432.37372 63.958956,409.11824 30.174127,382.7788 21.862719,383.47328 4.3104992,415.71168 -91.147641,498.57045 -126.195,512.21021 c -21.90508,-36.15501 9.3639,-125.76046 21.80285,-157.00434 35.296185,-67.29617 -82.04435,2.89927 -116.86637,17.33423 -70.34813,29.16179 -213.58351,-11.37764 -204.82408,-25.89312 39.15147,-52.23466 89.93693,-118.63544 165.47816,-124.38615 50.43214,-3.83923 138.29931,53.22836 160.614695,69.21603 -11.457305,-13.12343 -44.090055,-40.55845 -50.917765,-63.99399 -13.54877,-46.50506 -2.69754,-98.77718 24.84046,-134.561137 27.340835,35.556967 71.432985,70.152437 87.442065,110.041977 10.199125,25.41298 11.7996,54.64204 3.22977,76.74804 -0.21455,2.89172 -10.00364,10.83603 8.93672,16.39266 47.66067,18.96928 33.2681903,51.39968 49.95631,66.47423 29.362692,12.78566 160.306315,143.728 66.615913,199.30903 -47.950277,28.44609 -105.217204,8.27167 -104.053981,8.14799 z"
                 style="fill:#0a5a0a;fill-opacity:1"
                 sodipodi:nodetypes="cccccscscacacccsc"
                 inkscape:transform-center-x="158.08432"
                 inkscape:transform-center-y="-221.6347" />
            </g>
          </g>
        </g>
        <g
           style="fill:#237500;fill-opacity:1"
           transform="matrix(0.59640182,-0.20216095,0.19694305,0.61510675,271.82141,185.19556)"
           id="g3047">
          <g
             style="fill:#237500;fill-opacity:1"
             inkscape:transform-center-y="-86.140747"
             transform="matrix(-0.1275066,0.37028234,0.47750524,0.07807367,320.25627,-62.507447)"
             id="g3017"
             inkscape:transform-center-x="124.44977">
            <g
               style="fill:#237500;fill-opacity:1"
               id="g3019">
              <path
                 inkscape:connector-curvature="0"
                 id="path3021"
                 d="M -13.940253,570.03566 C 121.2594,581.92279 111.37552,496.55902 71.668298,432.37372 63.958956,409.11824 30.174127,382.7788 21.862719,383.47328 4.3104992,415.71168 -91.147641,498.57045 -126.195,512.21021 c -21.90508,-36.15501 9.3639,-125.76046 21.80285,-157.00434 35.296185,-67.29617 -82.04435,2.89927 -116.86637,17.33423 -70.34813,29.16179 -213.58351,-11.37764 -204.82408,-25.89312 39.15147,-52.23466 89.93693,-118.63544 165.47816,-124.38615 50.43214,-3.83923 138.29931,53.22836 160.614695,69.21603 -11.457305,-13.12343 -44.090055,-40.55845 -50.917765,-63.99399 -13.54877,-46.50506 -2.69754,-98.77718 24.84046,-134.561137 27.340835,35.556967 71.432985,70.152437 87.442065,110.041977 10.199125,25.41298 11.7996,54.64204 3.22977,76.74804 -0.21455,2.89172 -10.00364,10.83603 8.93672,16.39266 47.66067,18.96928 33.2681903,51.39968 49.95631,66.47423 29.362692,12.78566 160.306315,143.728 66.615913,199.30903 -47.950277,28.44609 -105.217204,8.27167 -104.053981,8.14799 z"
                 style="fill:#237500;fill-opacity:1"
                 sodipodi:nodetypes="cccccscscacacccsc"
                 inkscape:transform-center-x="158.08432"
                 inkscape:transform-center-y="-221.6347" />
            </g>
          </g>
          <g
             style="fill:#237500;fill-opacity:1"
             inkscape:transform-center-x="-80.513706"
             id="g3029"
             transform="matrix(-0.38093403,-0.09710292,-0.04004246,0.48007899,654.0694,-291.66167)"
             inkscape:transform-center-y="-128.84772">
            <g
               style="fill:#237500;fill-opacity:1"
               id="g3031">
              <path
                 inkscape:transform-center-y="-221.6347"
                 inkscape:transform-center-x="158.08432"
                 sodipodi:nodetypes="cccccscscacacccsc"
                 style="fill:#237500;fill-opacity:1"
                 d="M -13.940253,570.03566 C 121.2594,581.92279 111.37552,496.55902 71.668298,432.37372 63.958956,409.11824 30.174127,382.7788 21.862719,383.47328 4.3104992,415.71168 -91.147641,498.57045 -126.195,512.21021 c -21.90508,-36.15501 9.3639,-125.76046 21.80285,-157.00434 35.296185,-67.29617 -82.04435,2.89927 -116.86637,17.33423 -70.34813,29.16179 -213.58351,-11.37764 -204.82408,-25.89312 39.15147,-52.23466 89.93693,-118.63544 165.47816,-124.38615 50.43214,-3.83923 138.29931,53.22836 160.614695,69.21603 -11.457305,-13.12343 -44.090055,-40.55845 -50.917765,-63.99399 -13.54877,-46.50506 -2.69754,-98.77718 24.84046,-134.561137 27.340835,35.556967 71.432985,70.152437 87.442065,110.041977 10.199125,25.41298 11.7996,54.64204 3.22977,76.74804 -0.21455,2.89172 -10.00364,10.83603 8.93672,16.39266 47.66067,18.96928 33.2681903,51.39968 49.95631,66.47423 29.362692,12.78566 160.306315,143.728 66.615913,199.30903 -47.950277,28.44609 -105.217204,8.27167 -104.053981,8.14799 z"
                 id="path3033"
                 inkscape:connector-curvature="0" />
            </g>
          </g>
          <g
             style="fill:#237500;fill-opacity:1"
             inkscape:transform-center-y="76.745379"
             transform="matrix(0.07871607,-0.38352014,-0.48360985,-0.01642029,909.45835,30.539726)"
             id="g3035"
             inkscape:transform-center-x="-131.07424">
            <g
               style="fill:#237500;fill-opacity:1"
               id="g3037">
              <path
                 inkscape:connector-curvature="0"
                 id="path3039"
                 d="M -13.940253,570.03566 C 121.2594,581.92279 111.37552,496.55902 71.668298,432.37372 63.958956,409.11824 30.174127,382.7788 21.862719,383.47328 4.3104992,415.71168 -91.147641,498.57045 -126.195,512.21021 c -21.90508,-36.15501 9.3639,-125.76046 21.80285,-157.00434 35.296185,-67.29617 -82.04435,2.89927 -116.86637,17.33423 -70.34813,29.16179 -213.58351,-11.37764 -204.82408,-25.89312 39.15147,-52.23466 89.93693,-118.63544 165.47816,-124.38615 50.43214,-3.83923 138.29931,53.22836 160.614695,69.21603 -11.457305,-13.12343 -44.090055,-40.55845 -50.917765,-63.99399 -13.54877,-46.50506 -2.69754,-98.77718 24.84046,-134.561137 27.340835,35.556967 71.432985,70.152437 87.442065,110.041977 10.199125,25.41298 11.7996,54.64204 3.22977,76.74804 -0.21455,2.89172 -10.00364,10.83603 8.93672,16.39266 47.66067,18.96928 33.2681903,51.39968 49.95631,66.47423 29.362692,12.78566 160.306315,143.728 66.615913,199.30903 -47.950277,28.44609 -105.217204,8.27167 -104.053981,8.14799 z"
                 style="fill:#237500;fill-opacity:1"
                 sodipodi:nodetypes="cccccscscacacccsc"
                 inkscape:transform-center-x="158.08432"
                 inkscape:transform-center-y="-221.6347" />
            </g>
          </g>
          <g
             style="fill:#237500;fill-opacity:1"
             inkscape:transform-center-x="85.257892"
             id="g3041"
             transform="matrix(0.37360217,0.12212787,0.07204966,-0.47635534,550.02925,294.03519)"
             inkscape:transform-center-y="125.23888">
            <g
               style="fill:#237500;fill-opacity:1"
               id="g3043">
              <path
                 inkscape:transform-center-y="-221.6347"
                 inkscape:transform-center-x="158.08432"
                 sodipodi:nodetypes="cccccscscacacccsc"
                 style="fill:#237500;fill-opacity:1"
                 d="M -13.940253,570.03566 C 121.2594,581.92279 111.37552,496.55902 71.668298,432.37372 63.958956,409.11824 30.174127,382.7788 21.862719,383.47328 4.3104992,415.71168 -91.147641,498.57045 -126.195,512.21021 c -21.90508,-36.15501 9.3639,-125.76046 21.80285,-157.00434 35.296185,-67.29617 -82.04435,2.89927 -116.86637,17.33423 -70.34813,29.16179 -213.58351,-11.37764 -204.82408,-25.89312 39.15147,-52.23466 89.93693,-118.63544 165.47816,-124.38615 50.43214,-3.83923 138.29931,53.22836 160.614695,69.21603 -11.457305,-13.12343 -44.090055,-40.55845 -50.917765,-63.99399 -13.54877,-46.50506 -2.69754,-98.77718 24.84046,-134.561137 27.340835,35.556967 71.432985,70.152437 87.442065,110.041977 10.199125,25.41298 11.7996,54.64204 3.22977,76.74804 -0.21455,2.89172 -10.00364,10.83603 8.93672,16.39266 47.66067,18.96928 33.2681903,51.39968 49.95631,66.47423 29.362692,12.78566 160.306315,143.728 66.615913,199.30903 -47.950277,28.44609 -105.217204,8.27167 -104.053981,8.14799 z"
                 id="path3045"
                 inkscape:connector-curvature="0" />
            </g>
          </g>
        </g>
        <g
           id="g3872"
           transform="matrix(0.27608586,0.15901208,-0.16990843,0.27956536,469.12939,-31.888096)"
           style="fill:#1baa0d;fill-opacity:1">
          <g
             inkscape:transform-center-x="124.44977"
             id="g3874"
             transform="matrix(-0.1275066,0.37028234,0.47750524,0.07807367,320.25627,-62.507447)"
             inkscape:transform-center-y="-86.140747"
             style="fill:#1baa0d;fill-opacity:1">
            <g
               id="g3876"
               style="fill:#1baa0d;fill-opacity:1">
              <path
                 inkscape:transform-center-y="-221.6347"
                 inkscape:transform-center-x="158.08432"
                 sodipodi:nodetypes="cccccscscacacccsc"
                 style="fill:#1baa0d;fill-opacity:1"
                 d="M -13.940253,570.03566 C 121.2594,581.92279 111.37552,496.55902 71.668298,432.37372 63.958956,409.11824 30.174127,382.7788 21.862719,383.47328 4.3104992,415.71168 -91.147641,498.57045 -126.195,512.21021 c -21.90508,-36.15501 9.3639,-125.76046 21.80285,-157.00434 35.296185,-67.29617 -82.04435,2.89927 -116.86637,17.33423 -70.34813,29.16179 -213.58351,-11.37764 -204.82408,-25.89312 39.15147,-52.23466 89.93693,-118.63544 165.47816,-124.38615 50.43214,-3.83923 138.29931,53.22836 160.614695,69.21603 -11.457305,-13.12343 -44.090055,-40.55845 -50.917765,-63.99399 -13.54877,-46.50506 -2.69754,-98.77718 24.84046,-134.561137 27.340835,35.556967 71.432985,70.152437 87.442065,110.041977 10.199125,25.41298 11.7996,54.64204 3.22977,76.74804 -0.21455,2.89172 -10.00364,10.83603 8.93672,16.39266 47.66067,18.96928 33.2681903,51.39968 49.95631,66.47423 29.362692,12.78566 160.306315,143.728 66.615913,199.30903 -47.950277,28.44609 -105.217204,8.27167 -104.053981,8.14799 z"
                 id="path3878"
                 inkscape:connector-curvature="0" />
            </g>
          </g>
          <g
             inkscape:transform-center-y="-128.84772"
             transform="matrix(-0.38093403,-0.09710292,-0.04004246,0.48007899,654.0694,-291.66167)"
             id="g3880"
             inkscape:transform-center-x="-80.513706"
             style="fill:#1baa0d;fill-opacity:1">
            <g
               id="g3882"
               style="fill:#1baa0d;fill-opacity:1">
              <path
                 inkscape:connector-curvature="0"
                 id="path3884"
                 d="M -13.940253,570.03566 C 121.2594,581.92279 111.37552,496.55902 71.668298,432.37372 63.958956,409.11824 30.174127,382.7788 21.862719,383.47328 4.3104992,415.71168 -91.147641,498.57045 -126.195,512.21021 c -21.90508,-36.15501 9.3639,-125.76046 21.80285,-157.00434 35.296185,-67.29617 -82.04435,2.89927 -116.86637,17.33423 -70.34813,29.16179 -213.58351,-11.37764 -204.82408,-25.89312 39.15147,-52.23466 89.93693,-118.63544 165.47816,-124.38615 50.43214,-3.83923 138.29931,53.22836 160.614695,69.21603 -11.457305,-13.12343 -44.090055,-40.55845 -50.917765,-63.99399 -13.54877,-46.50506 -2.69754,-98.77718 24.84046,-134.561137 27.340835,35.556967 71.432985,70.152437 87.442065,110.041977 10.199125,25.41298 11.7996,54.64204 3.22977,76.74804 -0.21455,2.89172 -10.00364,10.83603 8.93672,16.39266 47.66067,18.96928 33.2681903,51.39968 49.95631,66.47423 29.362692,12.78566 160.306315,143.728 66.615913,199.30903 -47.950277,28.44609 -105.217204,8.27167 -104.053981,8.14799 z"
                 style="fill:#1baa0d;fill-opacity:1"
                 sodipodi:nodetypes="cccccscscacacccsc"
                 inkscape:transform-center-x="158.08432"
                 inkscape:transform-center-y="-221.6347" />
            </g>
          </g>
          <g
             inkscape:transform-center-x="-131.07424"
             id="g3886"
             transform="matrix(0.07871607,-0.38352014,-0.48360985,-0.01642029,909.45835,30.539726)"
             inkscape:transform-center-y="76.745379"
             style="fill:#1baa0d;fill-opacity:1">
            <g
               id="g3888"
               style="fill:#1baa0d;fill-opacity:1">
              <path
                 inkscape:transform-center-y="-221.6347"
                 inkscape:transform-center-x="158.08432"
                 sodipodi:nodetypes="cccccscscacacccsc"
                 style="fill:#1baa0d;fill-opacity:1"
                 d="M -13.940253,570.03566 C 121.2594,581.92279 111.37552,496.55902 71.668298,432.37372 63.958956,409.11824 30.174127,382.7788 21.862719,383.47328 4.3104992,415.71168 -91.147641,498.57045 -126.195,512.21021 c -21.90508,-36.15501 9.3639,-125.76046 21.80285,-157.00434 35.296185,-67.29617 -82.04435,2.89927 -116.86637,17.33423 -70.34813,29.16179 -213.58351,-11.37764 -204.82408,-25.89312 39.15147,-52.23466 89.93693,-118.63544 165.47816,-124.38615 50.43214,-3.83923 138.29931,53.22836 160.614695,69.21603 -11.457305,-13.12343 -44.090055,-40.55845 -50.917765,-63.99399 -13.54877,-46.50506 -2.69754,-98.77718 24.84046,-134.561137 27.340835,35.556967 71.432985,70.152437 87.442065,110.041977 10.199125,25.41298 11.7996,54.64204 3.22977,76.74804 -0.21455,2.89172 -10.00364,10.83603 8.93672,16.39266 47.66067,18.96928 33.2681903,51.39968 49.95631,66.47423 29.362692,12.78566 160.306315,143.728 66.615913,199.30903 -47.950277,28.44609 -105.217204,8.27167 -104.053981,8.14799 z"
                 id="path3890"
                 inkscape:connector-curvature="0" />
            </g>
          </g>
          <g
             inkscape:transform-center-y="125.23888"
             transform="matrix(0.37360217,0.12212787,0.07204966,-0.47635534,550.02925,294.03519)"
             id="g3892"
             inkscape:transform-center-x="85.257892"
             style="fill:#1baa0d;fill-opacity:1">
            <g
               id="g3894"
               style="fill:#1baa0d;fill-opacity:1">
              <path
                 inkscape:connector-curvature="0"
                 id="path3896"
                 d="M -13.940253,570.03566 C 121.2594,581.92279 111.37552,496.55902 71.668298,432.37372 63.958956,409.11824 30.174127,382.7788 21.862719,383.47328 4.3104992,415.71168 -91.147641,498.57045 -126.195,512.21021 c -21.90508,-36.15501 9.3639,-125.76046 21.80285,-157.00434 35.296185,-67.29617 -82.04435,2.89927 -116.86637,17.33423 -70.34813,29.16179 -213.58351,-11.37764 -204.82408,-25.89312 39.15147,-52.23466 89.93693,-118.63544 165.47816,-124.38615 50.43214,-3.83923 138.29931,53.22836 160.614695,69.21603 -11.457305,-13.12343 -44.090055,-40.55845 -50.917765,-63.99399 -13.54877,-46.50506 -2.69754,-98.77718 24.84046,-134.561137 27.340835,35.556967 71.432985,70.152437 87.442065,110.041977 10.199125,25.41298 11.7996,54.64204 3.22977,76.74804 -0.21455,2.89172 -10.00364,10.83603 8.93672,16.39266 47.66067,18.96928 33.2681903,51.39968 49.95631,66.47423 29.362692,12.78566 160.306315,143.728 66.615913,199.30903 -47.950277,28.44609 -105.217204,8.27167 -104.053981,8.14799 z"
                 style="fill:#1baa0d;fill-opacity:1"
                 sodipodi:nodetypes="cccccscscacacccsc"
                 inkscape:transform-center-x="158.08432"
                 inkscape:transform-center-y="-221.6347" />
            </g>
          </g>
        </g>
      </g>
    </g>
  </g>
</svg>
