<svg xmlns="http://www.w3.org/2000/svg" viewBox="0 0 80 100">
  <!-- Paper -->
  <rect x="5" y="5" width="70" height="90" fill="#f5f0e6" stroke="#c4b49a" stroke-width="1"/>
  
  <!-- Margin line -->
  <line x1="15" y1="5" x2="15" y2="95" stroke="#d4c4a8" stroke-width="1"/>
  
  <!-- Ruled lines -->
  <line x1="5" y1="18" x2="75" y2="18" stroke="#e0d6c8" stroke-width="0.5"/>
  <line x1="5" y1="28" x2="75" y2="28" stroke="#e0d6c8" stroke-width="0.5"/>
  <line x1="5" y1="38" x2="75" y2="38" stroke="#e0d6c8" stroke-width="0.5"/>
  <line x1="5" y1="48" x2="75" y2="48" stroke="#e0d6c8" stroke-width="0.5"/>
  <line x1="5" y1="58" x2="75" y2="58" stroke="#e0d6c8" stroke-width="0.5"/>
  <line x1="5" y1="68" x2="75" y2="68" stroke="#e0d6c8" stroke-width="0.5"/>
  <line x1="5" y1="78" x2="75" y2="78" stroke="#e0d6c8" stroke-width="0.5"/>
  <line x1="5" y1="88" x2="75" y2="88" stroke="#e0d6c8" stroke-width="0.5"/>
  
  <!-- Illegible handwriting scribbles -->
  <path d="M18,15 q3,2 8,-1 t6,1 t8,-1 t7,2 t10,-1" stroke="#8b7355" stroke-width="1" fill="none" opacity="0.7"/>
  <path d="M18,25 q5,1 10,-2 t8,2 t12,-1 t9,1" stroke="#8b7355" stroke-width="1" fill="none" opacity="0.6"/>
  <path d="M18,35 q4,2 7,-1 t9,1 t6,-2 t8,1 t8,0" stroke="#8b7355" stroke-width="1" fill="none" opacity="0.7"/>
  <path d="M18,45 q6,1 12,-1 t10,2 t7,-1" stroke="#8b7355" stroke-width="1" fill="none" opacity="0.6"/>
  <path d="M18,55 q3,2 9,-2 t7,1 t11,-1 t6,2" stroke="#8b7355" stroke-width="1" fill="none" opacity="0.7"/>
  <path d="M18,65 q5,1 8,-1 t10,1 t9,-2 t5,1" stroke="#8b7355" stroke-width="1" fill="none" opacity="0.6"/>
  <path d="M18,75 q4,2 11,-1 t8,2 t6,-1" stroke="#8b7355" stroke-width="1" fill="none" opacity="0.7"/>
  <path d="M18,85 q7,1 9,-2 t8,1 t7,0" stroke="#8b7355" stroke-width="1" fill="none" opacity="0.6"/>
</svg>
