<?xml version="1.0" encoding="UTF-8"?>
<svg xmlns="http://www.w3.org/2000/svg" viewBox="0 0 200 200">
  <!-- Radial threads -->
  <g stroke="#4a3a5a" stroke-width="1" fill="none" opacity="0.7">
    <line x1="100" y1="100" x2="100" y2="0"/>
    <line x1="100" y1="100" x2="170" y2="15"/>
    <line x1="100" y1="100" x2="200" y2="60"/>
    <line x1="100" y1="100" x2="200" y2="100"/>
    <line x1="100" y1="100" x2="200" y2="140"/>
    <line x1="100" y1="100" x2="170" y2="185"/>
    <line x1="100" y1="100" x2="100" y2="200"/>
    <line x1="100" y1="100" x2="30" y2="185"/>
    <line x1="100" y1="100" x2="0" y2="140"/>
    <line x1="100" y1="100" x2="0" y2="100"/>
    <line x1="100" y1="100" x2="0" y2="60"/>
    <line x1="100" y1="100" x2="30" y2="15"/>
  </g>
  
  <!-- Spiral threads -->
  <g stroke="#3d2a4d" stroke-width="0.8" fill="none" opacity="0.6">
    <!-- Inner ring -->
    <path d="M100 85 Q108 85 112 92 Q116 100 112 108 Q108 115 100 115 Q92 115 88 108 Q84 100 88 92 Q92 85 100 85"/>
    <!-- Ring 2 -->
    <path d="M100 70 Q115 70 125 85 Q135 100 125 115 Q115 130 100 130 Q85 130 75 115 Q65 100 75 85 Q85 70 100 70"/>
    <!-- Ring 3 -->
    <path d="M100 50 Q130 50 145 75 Q160 100 145 125 Q130 150 100 150 Q70 150 55 125 Q40 100 55 75 Q70 50 100 50"/>
    <!-- Ring 4 -->
    <path d="M100 30 Q145 30 165 65 Q185 100 165 135 Q145 170 100 170 Q55 170 35 135 Q15 100 35 65 Q55 30 100 30"/>
    <!-- Outer ring -->
    <path d="M100 10 Q160 10 185 55 Q210 100 185 145 Q160 190 100 190 Q40 190 15 145 Q-10 100 15 55 Q40 10 100 10"/>
  </g>
</svg>