<?xml version="1.0" encoding="utf-8"?>
<svg version="1.1" xmlns="http://www.w3.org/2000/svg" viewBox="0 0 1200 120">
<g style="fill:#4a7c6f;">
	<path d="M1156.248,46.012c-2.855-0.187-6.303,5.068-2.154,5.34c0.965,0.063-4.428,5.337-4.957,5.799
		c-2.887,2.525-6.049,4.764-9.176,6.977c-3.531,2.499-7.225,4.801-10.99,6.977c7.029-5.964,12.486-13.256,12.855-23.195
		c0.076-2.044-2.078-2.172-3.539-1.498c-13.059,6.007-22.797,17.283-28.635,30.254c-0.586,1.304-0.197,1.975,0.594,2.199
		c-0.613,0.69-0.789,1.418-0.646,2.031c-9.295,4.012-18.869,7.016-28.604,9.41c-0.064,0-0.127-0.007-0.191-0.007
		c-0.5-0.007-1.018,0.158-1.512,0.425c-7.088,1.688-14.256,3.066-21.479,4.24c8.857-4.368,17.414-9.27,22.781-17.816
		c0.68-1.08,0.91-2.86-0.736-3.189c-16.246-3.242-31.094,7.678-40.365,20.066c-2.682,3.584,3.178,3.627,5.02,1.163
		c6.809-9.097,17.221-17.284,28.992-16.384c-7.453,9.027-19.992,12.786-30.021,18.275c-2.873,0.391-5.75,0.768-8.627,1.135
		c-25.064,3.195-50.221,3.158-75.135,0.551c12.305-2.789,24.656-5.795,32.307-16.696c0.795-1.132,0.81-2.771-0.738-3.189
		c-17.641-4.761-34.662,6.613-48.969,15.552c-0.904,0.564-1.412,1.216-1.611,1.84c-21.607-3.4-42.963-8.639-63.834-15.379
		c-6.211-2.006-12.373-4.162-18.488-6.434c12.469-0.018,25.105-1.209,34.693-9.781c0.826-0.738,1.834-2.883,0.387-3.604
		c-14.547-7.236-31.752-1.594-45.484,5.021c-1.565,0.754-2.336,2.282-2.271,3.452c-14.963-6.012-29.668-12.677-44.152-19.745
		c-9.016-4.398-17.756-8.909-26.668-12.97c13.047,0.464,27.918,0.434,33.809-12.85c0.508-1.143,0.012-2.106-1.104-2.508
		c-13.311-4.793-26.41,1.781-37.486,8.991c-0.385,0.251-0.684,0.518-0.93,0.79h-0.002c-1.102-0.012-2.289,0.783-3.098,1.76
		c-6.91-2.818-14-5.268-21.477-7.084c-10.941-2.66-22.291-4.01-33.578-3.902c10-5.144,18.961-12.264,23.869-22.648
		c0.656-1.387-0.353-2.625-1.799-2.57c-15.867,0.618-28.912,11.128-38.031,23.41c-1.361,1.835-0.502,2.74,0.906,2.86
		c-16.998,2.274-33.363,8.231-47.414,18.72c-10.521,7.85-18.754,18.076-24.996,29.458c-0.941-10.333-5.178-20.173-13.834-26.585
		c-1.682-1.245-4.699,0.832-5.234,2.471c-5.248,16.037,0.441,32.871,9.922,46.141c0.019,0.026,0.045,0.043,0.064,0.067
		c-0.436,1.399,0.111,2.661,2.418,2.174c18.061-3.811,38.715-11.345,47.473-28.899c0.539-1.078-0.002-2.178-1.104-2.51
		c-13.65-4.077-26.938,3.773-37.01,13.17c9.412-19.061,23.936-32.924,41.844-41.143c-0.541,0.588-0.975,1.256-1.189,1.865
		c-0.121-0.044-0.244-0.09-0.365-0.135c-2.6-0.963-7.035,3.92-3.545,5.217c13.473,4.998,27.527,9.743,41.619,4.586
		c1.195-0.438,3.59-2.813,2.314-4.23c-8.598-9.56-22.738-10.219-34.805-9.047c11.906-4.777,25.18-7.172,39.357-7.06
		c9.342,0.075,18.379,1.329,27.213,3.374c-1.502,1.174-2.379,2.994-0.838,3.939c5.789,3.555,11.332,7.594,15.41,12.906
		c-8.121-3.303-14.613-10.725-20.098-17.235c-1.971-2.337-7.496,1.655-5.594,3.915c8.184,9.711,17.754,19.822,31.242,20.396
		c2.18,0.093,4.844-2.444,3.873-4.628c-3.242-7.283-9.084-12.648-15.533-17.1c19.598,5.717,38.232,15.056,56.795,24.285
		c-0.982,0.957-1.547,2.217-0.93,3.289c6.209,10.811,13.879,24.424,27.266,26.893c2.006,0.371,5.346-1.647,4.807-4.012
		c-1.307-5.742-3.984-10.631-7.66-14.852c3.307,1.502,6.625,2.954,9.955,4.329c17.959,7.404,36.314,13.783,54.981,18.93
		c-0.9,0.941-1.383,2.137-0.781,3.156c7.103,11.996,17.906,22.95,32.188,25.252c2.344,0.377,5.678-2.014,4.568-4.564
		c-3.553-8.173-9.611-14.229-16.91-19.059c23.902,5.415,48.262,8.72,72.924,9.397c1.328,0.035,2.654,0.024,3.982,0.043
		c-0.414,0.874-0.387,1.793,0.455,2.467c11.135,8.906,24.666,14.645,39.004,15.057c1.996,0.059,5.084-2.477,3.873-4.625
		c-3.98-7.058-10.592-10.869-17.803-13.561c16.131-1.053,32.219-3.168,48.113-5.83c2.234-0.375,4.453-0.818,6.672-1.261
		c0.131,0.14,0.289,0.272,0.506,0.378c13.023,6.412,29.693,14.014,42.994,4.367c1.086-0.788,2.85-3.092,1.084-4.189
		c-6.039-3.752-12.467-6.014-19.18-7.254c12.762-4.227,25.109-9.66,36.777-16.467c8.746-5.103,17.152-10.738,24.631-17.607
		C1159.102,54.136,1164.777,46.57,1156.248,46.012z M801.902,26.023c-4.736,6.748-16.154,6.258-25.324,5.633
		C784.387,27.035,792.893,23.68,801.902,26.023z M617.144,85.041c-5.902-9.605-9.799-20.979-8.256-32.137
		c7.182,7.732,9.525,18.87,8.547,29.355c-0.055,0.59,0.074,1.006,0.307,1.305C617.543,84.055,617.338,84.545,617.144,85.041z
		 M657.49,68.809c-7.496,12.422-23.57,17.906-37.279,21.012c-0.018-0.045-0.021-0.093-0.041-0.137
		c0.719-0.452,1.311-1.053,1.557-1.737c0.086-0.237,0.18-0.464,0.268-0.698c0.731-0.155,1.486-0.552,2.107-1.25
		C632.357,76.736,644.31,66.329,657.49,68.809z M698.129,44.473c-8.943,1.242-18.326-1.725-26.879-4.857
		C680.279,38.83,690.719,39.082,698.129,44.473z M698.975,22.724c-0.398,0.044-0.795,0.097-1.193,0.142
		c0.902-0.269,1.773-0.767,2.307-1.484c6.769-9.117,16.049-17.141,27.449-18.884c-5.965,9.688-16.793,15.282-27.162,19.31
		C699.803,22.029,699.342,22.354,698.975,22.724z M810.978,60.671c2.049,1.01,4.096,2.009,6.147,2.997
		c-1.227,1.146-1.848,2.766-0.535,3.787c4.26,3.314,7.645,7.21,9.947,11.811C819.818,75.109,814.998,67.597,810.978,60.671z
		 M885.844,64.604c-9.326,5.66-22.51,4.805-33.504,4.465C862.707,64.432,874.986,60.762,885.844,64.604z M918.475,112.173
		c-8.238-3.909-14.783-10.964-19.766-18.71c2.828,0.732,5.666,1.432,8.51,2.107c-2.127,0.939-3.986,3.488-2.063,4.688
		C910.406,103.529,914.945,107.398,918.475,112.173z M946.688,97.176c-0.111-0.016-0.225-0.028-0.334-0.045
		c11.397-7.165,24.691-15.824,38.498-13.654c-9.16,9.513-25.703,9.751-37.664,13.491
		C947.018,97.021,946.852,97.094,946.688,97.176z M1021.699,117.254c-9.092-1.744-17.633-5.813-25.164-11.254
		c0.479-0.006,0.959-0.021,1.438-0.029c0.129,0.475,0.506,0.869,1.254,1.084C1007.242,109.352,1015.709,111.638,1021.699,117.254z
		 M1105.09,101.586c-8.363,2.604-18.596-1.6-26.705-5.504c0.561-0.139,1.125-0.252,1.684-0.396
		C1088.945,95.949,1097.275,97.559,1105.09,101.586z M1116.1,74.997c4.283-8.902,10.697-16.844,19.166-21.933
		C1133.266,63.199,1124.715,69.531,1116.1,74.997z"/>
	<circle cx="1156.248" cy="70.615" r="2.154"/>
	<circle cx="1133.287" cy="88.655" r="2.154"/>
	<circle cx="1103.766" cy="57.496" r="2.154"/>
	<circle cx="1033.24" cy="77.175" r="2.154"/>
	<circle cx="1008.639" cy="77.175" r="2.154"/>
	<circle cx="965.994" cy="121.457" r="2.154"/>
	<circle cx="875.789" cy="103.418" r="2.154"/>
	<circle cx="852.826" cy="98.496" r="2.154"/>
	<circle cx="918.432" cy="72.254" r="2.154"/>
	<circle cx="841.346" cy="44.373" r="2.154"/>
	<circle cx="818.385" cy="37.813" r="2.154"/>
	<circle cx="780.662" cy="75.536" r="2.154"/>
	<circle cx="757.699" cy="6.65" r="2.154"/>
	<circle cx="726.537" cy="50.933" r="2.154"/>
	<circle cx="680.613" cy="65.694" r="2.154"/>
	<circle cx="677.332" cy="8.289" r="2.154"/>
	<circle cx="644.529" cy="27.972" r="2.154"/>
	<!-- Mirrored left side -->
	<path d="M52.028,57.467c7.479,6.869,15.885,12.505,24.632,17.607
		c11.667,6.807,24.015,12.239,36.777,16.467c-6.713,1.24-13.142,3.502-19.18,7.254c-1.766,1.098-0.002,3.401,1.084,4.189
		c13.301,9.646,29.971,2.045,42.994-4.367c0.217-0.105,0.375-0.238,0.505-0.378c2.219,0.442,4.439,0.886,6.674,1.261
		c15.893,2.662,31.98,4.777,48.111,5.83c-7.21,2.691-13.821,6.503-17.802,13.561c-1.211,2.148,1.877,4.684,3.874,4.625
		c14.337-0.412,27.869-6.15,39.002-15.057c0.843-0.674,0.87-1.593,0.455-2.467c1.328-0.019,2.654-0.008,3.982-0.043
		c24.662-0.678,49.022-3.982,72.924-9.397c-7.298,4.83-13.356,10.887-16.91,19.059c-1.109,2.551,2.227,4.941,4.569,4.564
		c14.28-2.302,25.083-13.256,32.186-25.252c0.603-1.02,0.119-2.215-0.78-3.156c18.666-5.146,37.02-11.525,54.979-18.93
		c3.331-1.375,6.648-2.827,9.955-4.329c-3.675,4.222-6.353,9.11-7.66,14.852c-0.539,2.364,2.802,4.383,4.807,4.012
		c13.387-2.469,21.057-16.082,27.267-26.893c0.617-1.072,0.052-2.332-0.93-3.289c18.561-9.23,37.196-18.568,56.794-24.285
		c-6.449,4.451-12.291,9.816-15.533,17.1c-0.971,2.184,1.694,4.721,3.873,4.628c13.488-0.573,23.06-10.685,31.242-20.396
		c1.902-2.26-3.623-6.252-5.593-3.915c-5.484,6.511-11.977,13.933-20.099,17.235c4.078-5.313,9.621-9.352,15.41-12.906
		c1.542-0.945,0.664-2.766-0.837-3.939c8.834-2.045,17.872-3.299,27.212-3.374c14.179-0.112,27.451,2.282,39.358,7.06
		c-12.067-1.172-26.207-0.513-34.804,9.047c-1.277,1.418,1.117,3.793,2.313,4.23c14.092,5.157,28.146,0.412,41.619-4.586
		c3.49-1.297-0.945-6.18-3.545-5.217c-0.12,0.045-0.243,0.091-0.363,0.135c-0.216-0.609-0.649-1.277-1.191-1.865
		c17.908,8.219,32.432,22.082,41.846,41.143c-10.074-9.396-23.362-17.247-37.011-13.17c-1.102,0.332-1.642,1.432-1.103,2.51
		c8.759,17.555,29.412,25.088,47.472,28.899c2.307,0.487,2.855-0.774,2.42-2.174c0.019-0.024,0.043-0.041,0.063-0.067
		c9.481-13.27,15.17-30.104,9.922-46.141c-0.535-1.639-3.551-3.716-5.235-2.471c-8.656,6.412-12.893,16.252-13.834,26.585
		c-6.242-11.382-14.475-21.608-24.996-29.458c-14.051-10.488-30.417-16.445-47.415-18.72c1.41-0.12,2.268-1.025,0.906-2.86
		c-9.119-12.282-22.164-22.792-38.03-23.41c-1.445-0.055-2.455,1.184-1.799,2.57c4.908,10.385,13.87,17.505,23.869,22.648
		c-11.288-0.107-22.638,1.242-33.579,3.902c-7.476,1.816-14.566,4.266-21.477,7.084c-0.807-0.977-1.996-1.771-3.097-1.76h-0.002
		c-0.247-0.273-0.546-0.539-0.93-0.79c-11.077-7.21-24.177-13.784-37.486-8.991c-1.114,0.401-1.612,1.365-1.104,2.508
		c5.892,13.283,20.762,13.313,33.809,12.85c-8.911,4.061-17.652,8.572-26.667,12.97c-14.485,7.068-29.19,13.733-44.153,19.745
		c0.064-1.17-0.707-2.698-2.271-3.452c-13.732-6.614-30.938-12.257-45.484-5.021c-1.447,0.721-0.439,2.865,0.387,3.604
		c9.588,8.572,22.226,9.764,34.694,9.781c-6.115,2.271-12.276,4.428-18.488,6.434c-20.872,6.74-42.228,11.979-63.834,15.379
		c-0.199-0.624-0.708-1.275-1.612-1.84c-14.305-8.939-31.327-20.313-48.969-15.552c-1.549,0.418-1.532,2.058-0.738,3.189
		c7.652,10.901,20.003,13.907,32.307,16.696c-24.912,2.607-50.069,2.645-75.135-0.551c-2.876-0.367-5.753-0.744-8.627-1.135
		c-10.028-5.489-22.568-9.248-30.021-18.275c11.771-0.9,22.185,7.287,28.991,16.384c1.844,2.464,7.703,2.421,5.02-1.163
		c-9.27-12.389-24.119-23.309-40.364-20.066c-1.647,0.329-1.417,2.109-0.737,3.189c5.368,8.547,13.925,13.448,22.781,17.816
		c-7.222-1.174-14.391-2.553-21.478-4.24c-0.494-0.267-1.012-0.432-1.511-0.425c-0.064,0-0.128,0.007-0.192,0.007
		c-9.734-2.395-19.308-5.398-28.604-9.41c0.143-0.613-0.031-1.341-0.646-2.031c0.791-0.225,1.18-0.895,0.594-2.199
		c-5.837-12.971-15.575-24.247-28.634-30.254c-1.462-0.674-3.616-0.546-3.54,1.498c0.37,9.939,5.826,17.231,12.857,23.195
		c-3.768-2.176-7.46-4.477-10.992-6.977c-3.127-2.213-6.287-4.451-9.175-6.977c-0.529-0.462-5.923-5.736-4.958-5.799
		c4.149-0.271,0.702-5.526-2.154-5.34C42.728,46.57,48.401,54.136,52.028,57.467z M430.925,31.656
		c-9.169,0.625-20.587,1.115-25.323-5.633C414.611,23.68,423.116,27.035,430.925,31.656z M589.761,83.564
		c0.234-0.299,0.361-0.715,0.307-1.305c-0.979-10.485,1.365-21.623,8.547-29.355c1.543,11.158-2.354,22.532-8.256,32.137
		C590.165,84.545,589.96,84.055,589.761,83.564z M583.402,85.998c0.621,0.698,1.377,1.095,2.107,1.25
		c0.088,0.234,0.182,0.461,0.268,0.698c0.246,0.685,0.838,1.285,1.557,1.737c-0.019,0.044-0.023,0.092-0.041,0.137
		c-13.709-3.105-29.784-8.59-37.279-21.012C563.194,66.329,575.146,76.736,583.402,85.998z M536.255,39.615
		c-8.555,3.133-17.938,6.1-26.881,4.857C516.785,39.082,527.224,38.83,536.255,39.615z M507.129,21.807
		c-10.37-4.027-21.198-9.621-27.162-19.31c11.4,1.743,20.679,9.767,27.45,18.884c0.533,0.717,1.404,1.215,2.305,1.484
		c-0.397-0.045-0.794-0.098-1.192-0.142C508.161,22.354,507.701,22.029,507.129,21.807z M380.966,79.266
		c2.303-4.601,5.688-8.496,9.948-11.811c1.313-1.021,0.692-2.641-0.534-3.787c2.049-0.988,4.098-1.987,6.145-2.997
		C392.505,67.597,387.685,75.109,380.966,79.266z M355.163,69.068c-10.993,0.34-24.177,1.195-33.503-4.465
		C332.517,60.762,344.797,64.432,355.163,69.068z M302.347,100.258c1.924-1.199,0.064-3.748-2.061-4.688
		c2.845-0.676,5.682-1.375,8.51-2.107c-4.983,7.746-11.528,14.801-19.767,18.71C292.56,107.398,297.098,103.529,302.347,100.258z
		 M260.315,96.968c-11.961-3.74-28.502-3.979-37.663-13.491c13.806-2.17,27.102,6.489,38.498,13.654
		c-0.11,0.017-0.224,0.029-0.334,0.045C260.653,97.094,260.485,97.021,260.315,96.968z M208.276,107.055
		c0.748-0.215,1.125-0.609,1.255-1.084c0.479,0.008,0.958,0.023,1.436,0.029c-7.53,5.441-16.072,9.51-25.164,11.254
		C191.795,111.638,200.261,109.352,208.276,107.055z M127.435,95.686c0.559,0.145,1.124,0.258,1.684,0.396
		c-8.107,3.904-18.34,8.107-26.705,5.504C110.229,97.559,118.559,95.949,127.435,95.686z M72.239,53.064
		c8.467,5.089,14.881,13.03,19.165,21.933C82.79,69.531,74.239,63.199,72.239,53.064z"/>
	<circle cx="51.255" cy="70.615" r="2.154"/>
	<circle cx="74.216" cy="88.655" r="2.154"/>
	<circle cx="103.738" cy="57.496" r="2.154"/>
	<circle cx="174.263" cy="77.175" r="2.154"/>
	<circle cx="198.865" cy="77.175" r="2.154"/>
	<circle cx="241.509" cy="121.457" r="2.154"/>
	<circle cx="331.715" cy="103.418" r="2.154"/>
	<circle cx="354.678" cy="98.496" r="2.154"/>
	<circle cx="289.071" cy="72.254" r="2.154"/>
	<circle cx="366.158" cy="44.373" r="2.154"/>
	<circle cx="389.119" cy="37.813" r="2.154"/>
	<circle cx="426.842" cy="75.536" r="2.154"/>
	<circle cx="449.805" cy="6.65" r="2.154"/>
	<circle cx="480.966" cy="50.933" r="2.154"/>
	<circle cx="526.89" cy="65.694" r="2.154"/>
	<circle cx="530.171" cy="8.289" r="2.154"/>
	<circle cx="562.974" cy="27.972" r="2.154"/>
</g>
</svg>