<?xml version="1.0" encoding="utf-8"?>
<svg version="1.1" xmlns="http://www.w3.org/2000/svg" viewBox="95 680 130 170">
<g>
	<path style="fill:#4a7c6f;" d="M217.551,814.139c-0.008-0.006-0.015-0.007-0.023-0.012c-0.622-2.156-1.84-4.228-3.807-6.086
		c-1.175-1.109-2.428-2.006-3.737-2.744c0.026-0.016,0.05-0.025,0.075-0.043c2.521-1.684,5.004-3.381,7.222-5.459
		c0.757-0.708,1.251-2.338-0.137-2.664c-6.912-1.625-13.987,1.453-19.509,5.57c-5.253,0.247-10.669,1.771-15.588,3.647
		c1.439-2.111,2.695-4.35,3.861-6.634c0.451-0.884-0.244-1.929-1.249-1.784c-8.931,1.291-15.513,8.075-18.743,16.238
		c-0.018,0.044-0.023,0.078-0.035,0.121c-3.391,1.936-6.924,3.961-10.52,5.709c-0.179-0.042-0.355-0.091-0.535-0.13
		c-1.041-0.23-2.449,0.75-3.068,1.757c-3.287,1.381-6.602,2.447-9.884,2.906c4.355-2.416,7.934-5.947,10.351-10.502
		c0.546-1.029-0.326-1.713-1.249-1.782c-8.102-0.609-14.539,4.959-17.915,11.863c-0.043-0.011-0.087-0.019-0.13-0.03
		c-0.658-0.182-1.468,0.142-2.132,0.658c-2.205-0.006-4.085-0.775-5.679-2.058c0.027-0.044,0.044-0.088,0.066-0.132
		c0.407-0.266,0.75-0.584,0.932-0.94c3.625-7.126,9.272-15.238,7.688-23.643c-0.258-1.368-2.264-0.87-2.989-0.286
		c-5.76,4.626-9.235,11.006-10.633,18.022c-1.231-2.752-2.098-5.725-2.708-8.293c-0.521-2.193-0.861-4.392-1.059-6.589
		c6.038-9.495,16.841-16.336,17.403-28.521c0.054-1.147-0.941-1.436-1.903-1.239c-6.792,1.391-11.011,5.783-13.96,11.221
		c0.48-2.04,1.046-4.065,1.685-6.073c0.582-0.586,0.913-1.318,0.647-1.96c0.159-0.465,0.317-0.931,0.483-1.394
		c1.315-3.66,2.865-7.229,4.473-10.774c0.425-0.021,0.918-0.2,1.443-0.615c9.72-7.691,23.435-16.437,23.134-30.431
		c-0.023-1.046-0.892-1.567-1.903-1.237c-5.547,1.809-9.982,5.503-13.438,10.065c2.684-8.768,3.882-18.122,3.169-27.259
		c-0.158-2.014-0.484-3.987-1.006-5.867c0.222-0.111,0.438-0.244,0.635-0.417c5.232-4.57,8.268-10.823,7.477-17.829
		c-0.125-1.108-1.767-0.976-2.441-0.604c-4.064,2.243-7.79,6.688-9.183,11.517c-1.788-2.381-4.144-4.34-7.19-5.652
		c-4.863-2.093-10.014-0.367-12.691,4.152c-5.253,8.867,0.74,22.871,12.051,18.403c2.368-0.937,2.234-4.303-0.671-3.155
		c-10.454,4.13-13.966-24.936,2.2-13.789c6.974,4.809,7.067,16.19,6.67,23.615c-0.349,6.543-1.625,13.209-3.784,19.453
		c-2.296-6.964-7.091-13.299-14.469-14.354c-1.61-0.229-3.415,1.098-3.336,2.784c0.454,9.648,8.718,15.663,12.716,23.808
		c-1.355,3.047-2.725,6.099-4.04,9.164c-2.339-6.193-6.295-11.497-12.513-14.539c-1.266-0.619-3.229,0.376-3.632,1.715
		c-3.114,10.332,5.899,17.494,11.401,25.092c-1.178,3.549-2.139,7.146-2.817,10.805c-2.878-3.1-6.185-5.505-10.894-5.815
		c-1.462-0.098-2.914,1.436-2.854,2.826c0.42,9.608,7.189,18.216,13.64,24.806c0.065,0.067,0.142,0.115,0.216,0.166
		c0.817,3.785,2.109,7.761,3.984,11.14c-4.803,0.488-9.366,2.829-10.993,7.616c-0.222,0.653-0.153,1.112,0.36,1.576
		c5.006,4.523,11.69,2.572,17.129-0.069c0.677-0.328,1.137-0.867,1.38-1.423c2.142,0.846,4.601,1.049,7.4,0.392
		c4.495,0.783,8.959,0.022,13.281-1.345c-0.996,0.844-1.527,2.001-0.451,2.445c6.994,2.882,15.771,4.522,21.53-1.633
		c0.614-0.655,1.211-1.834,0.269-2.501c-2.467-1.745-5.107-3.043-7.9-4.007c6.798-3.402,13.399-7.234,20.359-10.294
		c0.846-0.372,1.719-0.728,2.604-1.073c3.011,4.145,8.95,8.402,14.359,6.672c2.002-0.64,4.21-2.501,3.542-4.843
		c-0.633-2.217-3.018-3.786-5.161-4.942c0.399-0.03,0.801-0.069,1.199-0.082c0.393,0.257,0.956,0.296,1.605-0.018
		c4.78,0.129,9.372,1.574,13.186,5.179c3.577,3.383,3.761,8.276,1.965,12.573c-1.522,3.639-4.952,6.191-7.977,8.484
		c-2.189,1.633-4.522,2.179-6.999,1.637c-3.826-0.688-1.166-3.651,0.761-4.378c2.389-0.901,2.245-4.256-0.671-3.155
		c-2.747,1.037-8.684,4.421-6.298,8.387c2.705,4.497,8.704,3.107,12.67,1.385c4.185-1.817,8.086-5.216,10.66-9.233
		c1.523,1.782,3.32,3.761,5.807,3.878c2.208,0.105,3.874-1.961,4.29-3.911C226.1,822.312,221.358,816.653,217.551,814.139z
		 M140.622,692.904c-0.157,3.51-1.521,6.645-3.75,9.323C136.817,698.951,138.313,695.324,140.622,692.904z M145.506,734.153
		c-0.776,8.544-7.507,14.662-14.29,19.947C133.629,746.596,138.035,737.723,145.506,734.153z M116.862,733.051
		c5.46,2.884,8.784,9.54,9.832,15.742C123.303,743.556,118.654,738.952,116.862,733.051z M112.077,800.794
		c-3.718-4.5-6.928-9.624-8.115-15.201c3.409,1.446,5.916,4.58,8.223,7.601C111.979,795.692,111.931,798.224,112.077,800.794z
		 M129.386,775.236c-1.116,7.461-6.627,12.869-11.595,18.529c0.142-0.388,0.133-0.777-0.089-1.128
		C119.773,785.678,122.453,777.878,129.386,775.236z M107.983,754.499c5.247,3.77,8.261,9.495,9.822,15.941
		c0.009,0.038,0.027,0.065,0.038,0.102c-0.042,0.108-0.082,0.217-0.124,0.327C113.619,765.992,108.263,760.606,107.983,754.499z
		 M110.545,826.569c1.682-2.962,5.746-3.325,9.15-2.78c0.813,0.947,1.703,1.783,2.669,2.481
		C118.39,828.127,114.225,829.262,110.545,826.569z M123.862,818.519c0.5-5.662,2.284-11.284,5.947-15.598
		C129.627,808.31,126.546,813.681,123.862,818.519z M147.102,815.996c-2.322,3.326-5.702,5.747-9.56,7.07
		C139.657,819.328,142.814,816.506,147.102,815.996z M162.105,827.303c-4.016,2.062-9.745,0.219-13.61-1.375
		c-0.065-0.027-0.137-0.039-0.206-0.056c1.003-0.371,1.997-0.763,2.98-1.168c0.735-0.304,1.458-0.632,2.185-0.954
		C156.536,824.523,159.409,825.66,162.105,827.303z M175.889,808.941c-0.042,0.018-0.086,0.038-0.126,0.057
		c-1.481,0.678-3.023,1.472-4.606,2.33c2.095-3.98,5.255-7.536,9.466-9.051C179.282,804.66,177.756,806.951,175.889,808.941z
		 M195.476,813.014c-3.321-0.048-6.499-2.402-8.648-4.922c0.887-0.256,1.78-0.496,2.681-0.7c-0.355,0.628-0.351,1.261,0.348,1.616
		C191.829,810.011,194.146,811.154,195.476,813.014z M207.213,804.023c-1.387-0.512-2.816-0.876-4.283-1.092
		c2.722-1.507,5.69-2.523,8.751-2.519c-1.107,0.802-2.248,1.559-3.387,2.32C207.692,803.133,207.352,803.588,207.213,804.023z
		 M218.696,824.531c-0.497-0.584-1.314-0.59-2.094-0.291c0.519-1.204,0.904-2.438,1.146-3.682c1.367,1.654,2.395,3.583,2.901,5.691
		c0.04,0.162,0.062,0.329,0.09,0.494C219.927,826.021,219.102,825.008,218.696,824.531z"/>
	<path style="fill:#4a7c6f;" d="M116.106,687.475v0.841c0,2.582,4.24,0.85,4.24-1.073V686.4
		C120.347,683.818,116.106,685.551,116.106,687.475z"/>
	<path style="fill:#4a7c6f;" d="M101.79,700.947v0.843c0,2.582,4.241,0.85,4.241-1.073v-0.843
		C106.031,697.292,101.79,699.024,101.79,700.947z"/>
	<path style="fill:#4a7c6f;" d="M106.829,713.791c-0.436-1.979-4.2-0.339-4.196,1.474c0,0.479-0.075,1.194,0.309,1.577
		c0.549,0.549,1.161,0.579,1.905,0.579c1.125,0.002,2.332-0.898,2.744-1.921C107.926,714.67,107.556,713.999,106.829,713.791z"/>
	<path style="fill:#4a7c6f;" d="M209.897,840.674c-0.459,0.346-0.836,0.798-1.031,1.284c-0.403,0.999,0.208,1.785,1.248,1.782
		c1.881-0.002,3.707-1.221,3.709-3.229C213.827,838.352,210.872,839.211,209.897,840.674z"/>
	<path style="fill:#4a7c6f;" d="M197.51,844.281c-0.044-0.031-0.39-0.276-0.244-0.131c-0.126-0.126-0.215-0.281-0.302-0.436
		c0.115,0.203,0.004-0.253,0.003-0.273c-0.075-1.159-1.794-0.903-2.441-0.604c-1.011,0.469-1.846,1.398-1.77,2.552
		c0.105,1.601,1.604,2.469,3.042,2.563c1.105,0.073,2.352-0.947,2.744-1.921C198.933,845.06,198.397,844.424,197.51,844.281z"/>
	<path style="fill:#4a7c6f;" d="M188.029,833.3c-1.97,0-4.372,3.705-1.495,3.705C188.504,837.005,190.906,833.3,188.029,833.3z"/>
</g>
</svg>